<svg width="54" height="50" viewBox="0 0 54 50" fill="none" xmlns="http://www.w3.org/2000/svg">
<path d="M54 24.0009C53.9967 20.8193 52.7313 17.769 50.4816 15.5192C48.2319 13.2695 45.1816 12.0042 42 12.0009H32.05C31.3225 11.9584 18.645 11.0659 6.5725 0.940865C5.98952 0.451246 5.27892 0.138166 4.52417 0.0384017C3.76942 -0.0613625 3.00188 0.0563329 2.3117 0.377662C1.62153 0.698992 1.03739 1.21061 0.627897 1.85241C0.218408 2.49422 0.000579334 3.23955 0 4.00086V44.0009C0.000103723 44.7624 0.217588 45.5081 0.62689 46.1502C1.03619 46.7924 1.62031 47.3044 2.31057 47.626C3.00084 47.9477 3.76858 48.0656 4.52355 47.9659C5.27852 47.8662 5.98936 47.5531 6.5725 47.0634C16.015 39.1434 25.8225 36.8734 30 36.2384V44.1684C29.9992 44.8275 30.1612 45.4766 30.4718 46.058C30.7823 46.6394 31.2317 47.135 31.78 47.5009L34.53 49.3334C35.0615 49.6881 35.6703 49.9104 36.3054 49.9815C36.9405 50.0526 37.5834 49.9706 38.1803 49.7422C38.7771 49.5137 39.3105 49.1457 39.7359 48.6687C40.1612 48.1918 40.4661 47.6199 40.625 47.0009L43.5675 35.9109C46.4543 35.5268 49.1034 34.1074 51.0224 31.9168C52.9413 29.7261 53.9994 26.9131 54 24.0009ZM4 43.9834V4.00086C14.7025 12.9784 25.6575 15.2509 30 15.8109V32.1809C25.6625 32.7509 14.71 35.0184 4 43.9834ZM36.75 45.9834V46.0109L34 44.1784V36.0009H39.4L36.75 45.9834ZM42 32.0009H34V16.0009H42C44.1217 16.0009 46.1566 16.8437 47.6569 18.344C49.1571 19.8443 50 21.8791 50 24.0009C50 26.1226 49.1571 28.1574 47.6569 29.6577C46.1566 31.158 44.1217 32.0009 42 32.0009Z" fill="black"/>
</svg>
