<svg width="747" height="747" viewBox="0 0 747 747" fill="none" xmlns="http://www.w3.org/2000/svg">
<g opacity="0.4" clip-path="url(#clip0_927_2253)">
<path opacity="0.16" d="M373.361 709.759C559.148 709.759 709.758 559.149 709.758 373.362C709.758 187.575 559.148 36.9653 373.361 36.9653C187.575 36.9653 36.9648 187.575 36.9648 373.362C36.9648 559.149 187.575 709.759 373.361 709.759Z" fill="#F5A6E6"/>
<path opacity="0.16" d="M373.363 746.727C579.566 746.727 746.727 579.566 746.727 373.363C746.727 167.16 579.566 0 373.363 0C167.16 0 0 167.16 0 373.363C0 579.566 167.16 746.727 373.363 746.727Z" fill="#FFD5F1"/>
<path opacity="0.16" d="M373.36 672.791C538.73 672.791 672.79 538.731 672.79 373.361C672.79 207.99 538.73 73.9307 373.36 73.9307C207.989 73.9307 73.9297 207.99 73.9297 373.361C73.9297 538.731 207.989 672.791 373.36 672.791Z" fill="#FC7AE3"/>
<path opacity="0.4" d="M471.389 389.477V462.376C471.389 481.155 456.75 501.264 439.154 507.179L391.984 522.853C383.704 525.662 370.248 525.662 362.115 522.853L314.946 507.179C297.202 501.264 282.711 481.155 282.711 462.376L282.859 389.477L348.216 432.063C364.185 442.561 390.506 442.561 406.475 432.063L471.389 389.477Z" fill="#A9277F"/>
<path d="M495.05 295.146L406.477 237.035C390.508 226.536 364.188 226.536 348.218 237.035L259.203 295.146C230.664 313.63 230.664 355.476 259.203 374.107L282.861 389.485L348.218 432.071C364.188 442.569 390.508 442.569 406.477 432.071L471.391 389.485L491.649 376.177V421.425C491.649 427.487 496.676 432.515 502.739 432.515C508.801 432.515 513.829 427.487 513.829 421.425V348.674C519.743 329.599 513.681 307.419 495.05 295.146Z" fill="#A9277F"/>
</g>
<defs>
<clipPath id="clip0_927_2253">
<rect width="746.727" height="746.727" fill="white"/>
</clipPath>
</defs>
</svg>
