<svg width="555" height="547" viewBox="0 0 555 547" fill="none" xmlns="http://www.w3.org/2000/svg">
<g opacity="0.4" clip-path="url(#clip0_1088_6038)">
<path opacity="0.16" d="M374.289 710.032C560.076 710.032 710.686 559.422 710.686 373.635C710.686 187.849 560.076 37.2388 374.289 37.2388C188.502 37.2388 37.8926 187.849 37.8926 373.635C37.8926 559.422 188.502 710.032 374.289 710.032Z" fill="#F5A6E6"/>
<path opacity="0.16" d="M374.291 747C580.494 747 747.654 579.84 747.654 373.637C747.654 167.434 580.494 0.273438 374.291 0.273438C168.088 0.273438 0.927734 167.434 0.927734 373.637C0.927734 579.84 168.088 747 374.291 747Z" fill="#FFD5F1"/>
<path opacity="0.16" d="M374.288 673.064C539.659 673.064 673.718 539.005 673.718 373.634C673.718 208.263 539.659 74.2041 374.288 74.2041C208.918 74.2041 74.8584 208.263 74.8584 373.634C74.8584 539.005 208.918 673.064 374.288 673.064Z" fill="#FC7AE3"/>
<path d="M493.256 365.954V309.154C493.256 298.545 485.235 286.512 475.272 282.501L403.206 253.002C386.988 246.403 368.834 246.403 352.617 253.002L280.55 282.501C270.717 286.512 262.695 298.545 262.695 309.154V365.954C262.695 429.222 308.626 488.48 371.377 505.817C375.647 506.981 380.305 506.981 384.574 505.817C447.325 488.48 493.256 429.222 493.256 365.954ZM387.68 388.596V422.623C387.68 427.928 383.281 432.327 377.976 432.327C372.671 432.327 368.272 427.928 368.272 422.623V388.596C361.734 386.546 356.017 382.47 351.947 376.959C347.877 371.447 345.665 364.783 345.63 357.932C345.63 349.353 349.038 341.126 355.104 335.06C361.17 328.994 369.397 325.586 377.976 325.586C386.554 325.586 394.782 328.994 400.848 335.06C406.914 341.126 410.322 349.353 410.322 357.932C410.322 372.423 400.747 384.455 387.68 388.596Z" fill="#A9277F"/>
</g>
<defs>
<clipPath id="clip0_1088_6038">
<rect width="746.727" height="746.727" fill="white" transform="translate(0.925781 0.273438)"/>
</clipPath>
</defs>
</svg>
