<svg width="56" height="52" viewBox="0 0 56 52" fill="none" xmlns="http://www.w3.org/2000/svg">
<path d="M54.0176 40.6892C55.3995 37.8229 56.0776 34.6683 55.9955 31.4873C55.9134 28.3063 55.0734 25.1908 53.5455 22.3996C52.0175 19.6084 49.8456 17.2221 47.2101 15.4389C44.5747 13.6557 41.5518 12.527 38.3926 12.1467C37.3414 9.70264 35.8131 7.49286 33.8972 5.64678C31.9813 3.8007 29.7164 2.35544 27.235 1.39563C24.7536 0.435812 22.1056 -0.0192598 19.4461 0.0570587C16.7867 0.133377 14.1692 0.739552 11.7469 1.84009C9.32462 2.94062 7.14628 4.51339 5.33942 6.4663C3.53256 8.41921 2.13352 10.713 1.2242 13.2133C0.314894 15.7137 -0.0864027 18.3703 0.0438156 21.0277C0.174034 23.6851 0.833149 26.2898 1.98256 28.6892L0.165064 34.8667C-0.038148 35.5564 -0.0517358 36.288 0.12573 36.9847C0.303196 37.6814 0.665155 38.3174 1.17353 38.8258C1.6819 39.3341 2.31789 39.6961 3.01459 39.8736C3.71128 40.051 4.44293 40.0374 5.13256 39.8342L11.3101 38.0167C13.2936 38.9697 15.4203 39.5905 17.6051 39.8542C18.6665 42.3412 20.2213 44.5872 22.1753 46.4563C24.1294 48.3254 26.4422 49.7788 28.9739 50.7287C31.5056 51.6787 34.2036 52.1053 36.9049 51.9829C39.6062 51.8606 42.2546 51.1917 44.6901 50.0167L50.8676 51.8342C51.5569 52.0372 52.2883 52.0507 52.9847 51.8733C53.6811 51.696 54.3168 51.3343 54.8251 50.8262C55.3334 50.3182 55.6954 49.6826 55.8731 48.9863C56.0508 48.29 56.0377 47.5587 55.8351 46.8692L54.0176 40.6892ZM11.5001 33.8742C11.3089 33.8747 11.1188 33.9016 10.9351 33.9542L4.00006 35.9992L6.04256 29.0592C6.18783 28.5578 6.13131 28.0195 5.88506 27.5592C4.07584 24.1757 3.54275 20.2546 4.38298 16.5109C5.2232 12.7671 7.38079 9.44996 10.4624 7.16409C13.5441 4.87822 17.3445 3.77586 21.171 4.05797C24.9975 4.34008 28.5952 5.98787 31.3083 8.70096C34.0214 11.414 35.6692 15.0118 35.9513 18.8383C36.2334 22.6648 35.1311 26.4652 32.8452 29.5469C30.5593 32.6285 27.2422 34.7861 23.4984 35.6263C19.7547 36.4665 15.8336 35.9335 12.4501 34.1242C12.1591 33.9632 11.8326 33.8773 11.5001 33.8742ZM49.9476 41.0567L52.0001 47.9992L45.0601 45.9567C44.5587 45.8115 44.0204 45.868 43.5601 46.1142C39.8771 48.0808 35.5718 48.5311 31.5616 47.3692C27.5515 46.2073 24.1537 43.5251 22.0926 39.8942C24.831 39.6084 27.4808 38.7598 29.8758 37.4015C32.2708 36.0433 34.3593 34.2048 36.0102 32.0013C37.6611 29.7978 38.8388 27.2769 39.4695 24.5968C40.1001 21.9167 40.1701 19.1352 39.6751 16.4267C42.061 16.9891 44.2859 18.0923 46.1779 19.651C48.0699 21.2097 49.5784 23.1823 50.587 25.4165C51.5957 27.6508 52.0775 30.0869 51.9952 32.5369C51.9129 34.9869 51.2688 37.3852 50.1126 39.5467C49.8636 40.0098 49.8071 40.5523 49.9551 41.0567H49.9476Z" fill="black"/>
</svg>
