<svg width="21" height="21" viewBox="0 0 21 21" fill="none" xmlns="http://www.w3.org/2000/svg">
<path d="M20.1353 18.6602C20.2282 18.7532 20.3019 18.8635 20.3522 18.9848C20.4025 19.1062 20.4284 19.2363 20.4284 19.3677C20.4284 19.4991 20.4025 19.6292 20.3522 19.7506C20.3019 19.872 20.2282 19.9823 20.1353 20.0752C20.0424 20.1682 19.9321 20.2419 19.8107 20.2921C19.6893 20.3424 19.5592 20.3683 19.4278 20.3683C19.2964 20.3683 19.1663 20.3424 19.0449 20.2921C18.9235 20.2419 18.8132 20.1682 18.7203 20.0752L10.4278 11.7815L2.1353 20.0752C1.94766 20.2629 1.69317 20.3683 1.4278 20.3683C1.16244 20.3683 0.907943 20.2629 0.720302 20.0752C0.532661 19.8876 0.427246 19.6331 0.427246 19.3677C0.427246 19.1024 0.532661 18.8479 0.720302 18.6602L9.01405 10.3677L0.720302 2.07524C0.532661 1.8876 0.427246 1.63311 0.427246 1.36774C0.427246 1.10238 0.532661 0.847884 0.720302 0.660244C0.907943 0.472603 1.16244 0.367188 1.4278 0.367188C1.69317 0.367188 1.94766 0.472603 2.1353 0.660244L10.4278 8.95399L18.7203 0.660244C18.9079 0.472603 19.1624 0.367187 19.4278 0.367188C19.6932 0.367188 19.9477 0.472603 20.1353 0.660244C20.3229 0.847884 20.4284 1.10238 20.4284 1.36774C20.4284 1.63311 20.3229 1.8876 20.1353 2.07524L11.8416 10.3677L20.1353 18.6602Z" fill="white"/>
</svg>
