<svg width="253" height="68" viewBox="0 0 253 68" fill="none" xmlns="http://www.w3.org/2000/svg">
<rect width="122.535" height="67.0696" fill="#AA1676"/>
<path d="M33.6854 25.9431L31.5947 27.5471C30.4412 26.0452 29.0535 24.9098 27.4314 24.1408C25.8213 23.3598 24.049 22.9693 22.1146 22.9693C19.9998 22.9693 18.0413 23.4799 16.239 24.5012C14.4367 25.5105 13.0369 26.8743 12.0396 28.5925C11.0544 30.2987 10.5617 32.2211 10.5617 34.3599C10.5617 37.592 11.6671 40.2895 13.878 42.4523C16.1008 44.615 18.9004 45.6964 22.2768 45.6964C25.9895 45.6964 29.0955 44.2426 31.5947 41.3348L33.6854 42.9209C32.3637 44.603 30.7116 45.9067 28.729 46.8319C26.7585 47.7451 24.5537 48.2016 22.1146 48.2016C17.4766 48.2016 13.8179 46.6577 11.1385 43.5697C8.89159 40.9624 7.76815 37.8143 7.76815 34.1256C7.76815 30.2446 9.12589 26.9824 11.8414 24.339C14.5689 21.6836 17.9813 20.3559 22.0785 20.3559C24.5537 20.3559 26.7886 20.8485 28.7831 21.8338C30.7777 22.8071 32.4118 24.1768 33.6854 25.9431ZM36.497 27.9256H39.1644L45.9051 43.029L52.4475 27.9256H55.1329L43.4359 54.708H40.7685L44.5533 46.0569L36.497 27.9256ZM58.5573 47.5348V20.3559H61.0625V31.296C62.1199 29.9983 63.3034 29.031 64.6131 28.3942C65.9228 27.7454 67.3586 27.421 68.9206 27.421C71.6962 27.421 74.0632 28.4303 76.0217 30.4489C77.9923 32.4554 78.9775 34.8946 78.9775 37.7663C78.9775 40.6019 77.9863 43.023 76.0037 45.0296C74.0212 47.0362 71.6361 48.0394 68.8485 48.0394C67.2505 48.0394 65.8026 47.697 64.505 47.0121C63.2073 46.3272 62.0598 45.2999 61.0625 43.9302V47.5348H58.5573ZM68.6503 45.6063C70.0561 45.6063 71.3537 45.2639 72.5433 44.579C73.7328 43.8821 74.676 42.9089 75.3729 41.6593C76.0818 40.4096 76.4363 39.088 76.4363 37.6942C76.4363 36.3004 76.0818 34.9727 75.3729 33.7111C74.664 32.4494 73.7088 31.4702 72.5072 30.7733C71.3177 30.0644 70.0441 29.7099 68.6863 29.7099C67.3045 29.7099 65.9889 30.0644 64.7393 30.7733C63.5017 31.4702 62.5464 32.4134 61.8736 33.6029C61.2127 34.7924 60.8823 36.1322 60.8823 37.6221C60.8823 39.893 61.6273 41.7914 63.1172 43.3174C64.6191 44.8433 66.4635 45.6063 68.6503 45.6063ZM100.101 41.0284L102.227 42.1459C101.53 43.5156 100.725 44.6211 99.8123 45.4621C98.8991 46.3032 97.8718 46.946 96.7303 47.3906C95.5888 47.8232 94.2972 48.0394 92.8553 48.0394C89.6592 48.0394 87.16 46.9941 85.3577 44.9034C83.5554 42.8007 82.6542 40.4277 82.6542 37.7843C82.6542 35.2971 83.4172 33.0802 84.9432 31.1337C86.8777 28.6586 89.467 27.421 92.7111 27.421C96.0514 27.421 98.7189 28.6886 100.713 31.2239C102.131 33.0142 102.852 35.249 102.876 37.9285H85.2496C85.2976 40.2114 86.0246 42.0858 87.4304 43.5517C88.8362 45.0055 90.5724 45.7325 92.6391 45.7325C93.6363 45.7325 94.6036 45.5583 95.5408 45.2098C96.49 44.8614 97.295 44.3988 97.9559 43.822C98.6167 43.2453 99.3316 42.3141 100.101 41.0284ZM100.101 35.7477C99.7642 34.4019 99.2716 33.3266 98.6227 32.5215C97.9859 31.7165 97.1388 31.0677 96.0815 30.575C95.0241 30.0824 93.9127 29.8361 92.7472 29.8361C90.8247 29.8361 89.1726 30.4549 87.7908 31.6925C86.7815 32.5936 86.0186 33.9454 85.5019 35.7477H100.101ZM106.643 27.9256H109.22V30.7913C109.989 29.6619 110.8 28.8208 111.653 28.2681C112.507 27.7033 113.396 27.421 114.321 27.421C115.018 27.421 115.763 27.6433 116.556 28.0878L115.24 30.2146C114.711 29.9863 114.267 29.8721 113.906 29.8721C113.065 29.8721 112.254 30.2206 111.473 30.9175C110.692 31.6023 110.097 32.6717 109.689 34.1256C109.377 35.243 109.22 37.5019 109.22 40.9023V47.5348H106.643V27.9256Z" fill="white"/>
<path d="M125.581 21.0228H131.565C135.422 21.0228 138.287 21.5034 140.162 22.4646C142.036 23.4138 143.58 24.9638 144.794 27.1146C146.007 29.2653 146.614 31.7766 146.614 34.6483C146.614 36.6909 146.272 38.5713 145.587 40.2895C144.914 41.9957 143.977 43.4135 142.775 44.543C141.586 45.6724 140.294 46.4534 138.9 46.886C137.506 47.3185 135.091 47.5348 131.655 47.5348H125.581V21.0228ZM130.61 25.889V42.5965H132.953C135.259 42.5965 136.93 42.3321 137.963 41.8034C139.008 41.2748 139.861 40.3856 140.522 39.136C141.183 37.8864 141.514 36.3484 141.514 34.5221C141.514 31.7105 140.726 29.5297 139.152 27.9797C137.735 26.5859 135.458 25.889 132.322 25.889H130.61ZM170.513 39.154H154.706C154.935 40.5478 155.542 41.6593 156.527 42.4883C157.524 43.3054 158.792 43.7139 160.33 43.7139C162.168 43.7139 163.748 43.0711 165.07 41.7854L169.215 43.7319C168.182 45.1978 166.944 46.2852 165.502 46.9941C164.06 47.691 162.348 48.0394 160.366 48.0394C157.29 48.0394 154.785 47.0722 152.85 45.1377C150.916 43.1912 149.948 40.7581 149.948 37.8383C149.948 34.8465 150.91 32.3653 152.832 30.3948C154.767 28.4123 157.188 27.421 160.095 27.421C163.183 27.421 165.695 28.4123 167.629 30.3948C169.564 32.3653 170.531 34.9727 170.531 38.2168L170.513 39.154ZM165.574 35.2791C165.25 34.1857 164.607 33.2965 163.646 32.6116C162.697 31.9268 161.591 31.5843 160.33 31.5843C158.96 31.5843 157.758 31.9688 156.725 32.7378C156.076 33.2184 155.475 34.0655 154.923 35.2791H165.574ZM174.478 27.9256H179.416V30.1785C180.257 29.2533 181.188 28.5624 182.21 28.1059C183.243 27.6493 184.366 27.421 185.58 27.421C186.806 27.421 187.911 27.7214 188.896 28.3221C189.882 28.9229 190.675 29.8 191.275 30.9535C192.056 29.8 193.012 28.9229 194.141 28.3221C195.283 27.7214 196.526 27.421 197.872 27.421C199.266 27.421 200.491 27.7454 201.549 28.3942C202.606 29.0431 203.363 29.8901 203.819 30.9355C204.288 31.9808 204.522 33.681 204.522 36.036V47.5348H199.566V37.586C199.566 35.3632 199.29 33.8612 198.737 33.0802C198.184 32.2872 197.355 31.8907 196.25 31.8907C195.409 31.8907 194.652 32.131 193.979 32.6116C193.318 33.0923 192.825 33.7591 192.501 34.6122C192.177 35.4533 192.014 36.811 192.014 38.6854V47.5348H187.058V38.0366C187.058 36.2824 186.926 35.0147 186.661 34.2337C186.409 33.4407 186.025 32.8519 185.508 32.4675C184.991 32.083 184.366 31.8907 183.634 31.8907C182.817 31.8907 182.072 32.137 181.399 32.6297C180.738 33.1103 180.239 33.7892 179.903 34.6663C179.578 35.5434 179.416 36.9252 179.416 38.8116V47.5348H174.478V27.9256ZM211.155 19.8513C212.02 19.8513 212.759 20.1637 213.372 20.7885C213.997 21.4133 214.309 22.1702 214.309 23.0594C214.309 23.9365 214.003 24.6875 213.39 25.3123C212.777 25.9251 212.044 26.2315 211.191 26.2315C210.314 26.2315 209.563 25.9191 208.938 25.2943C208.325 24.6574 208.019 23.8884 208.019 22.9873C208.019 22.1222 208.325 21.3832 208.938 20.7704C209.551 20.1577 210.29 19.8513 211.155 19.8513ZM208.686 27.9256H213.624V47.5348H208.686V27.9256ZM232.584 27.9256H237.487V47.5348H232.584V45.4621C231.623 46.3753 230.656 47.0362 229.683 47.4447C228.721 47.8412 227.676 48.0394 226.547 48.0394C224.011 48.0394 221.819 47.0602 219.968 45.1017C218.118 43.1311 217.193 40.686 217.193 37.7663C217.193 34.7384 218.088 32.2572 219.878 30.3227C221.668 28.3882 223.843 27.421 226.402 27.421C227.58 27.421 228.685 27.6433 229.719 28.0878C230.752 28.5324 231.707 29.1993 232.584 30.0884V27.9256ZM227.412 31.9628C225.886 31.9628 224.618 32.5035 223.609 33.5849C222.6 34.6543 222.095 36.03 222.095 37.7122C222.095 39.4064 222.606 40.8001 223.627 41.8936C224.66 42.987 225.928 43.5337 227.43 43.5337C228.98 43.5337 230.265 42.999 231.287 41.9296C232.308 40.8482 232.819 39.4364 232.819 37.6942C232.819 35.988 232.308 34.6062 231.287 33.5488C230.265 32.4915 228.974 31.9628 227.412 31.9628Z" fill="black"/>
</svg>
