<svg width="65" height="65" viewBox="0 0 65 65" fill="none" xmlns="http://www.w3.org/2000/svg">
<path d="M35.9844 45.6289C35.9844 46.2223 35.8084 46.8023 35.4788 47.2956C35.1491 47.789 34.6806 48.1735 34.1324 48.4005C33.5843 48.6276 32.9811 48.687 32.3991 48.5713C31.8172 48.4555 31.2826 48.1698 30.8631 47.7502C30.4435 47.3307 30.1578 46.7961 30.042 46.2142C29.9263 45.6322 29.9857 45.029 30.2127 44.4809C30.4398 43.9327 30.8243 43.4641 31.3177 43.1345C31.811 42.8049 32.391 42.6289 32.9844 42.6289C33.78 42.6289 34.5431 42.945 35.1057 43.5076C35.6683 44.0702 35.9844 44.8333 35.9844 45.6289ZM32.9844 18.6289C27.4694 18.6289 22.9844 22.6664 22.9844 27.6289V28.6289C22.9844 29.1593 23.1951 29.668 23.5702 30.0431C23.9452 30.4182 24.454 30.6289 24.9844 30.6289C25.5148 30.6289 26.0235 30.4182 26.3986 30.0431C26.7737 29.668 26.9844 29.1593 26.9844 28.6289V27.6289C26.9844 24.8789 29.6769 22.6289 32.9844 22.6289C36.2919 22.6289 38.9844 24.8789 38.9844 27.6289C38.9844 30.3789 36.2919 32.6289 32.9844 32.6289C32.454 32.6289 31.9452 32.8396 31.5702 33.2147C31.1951 33.5898 30.9844 34.0985 30.9844 34.6289V36.6289C30.9844 37.1593 31.1951 37.668 31.5702 38.0431C31.9452 38.4182 32.454 38.6289 32.9844 38.6289C33.5148 38.6289 34.0235 38.4182 34.3986 38.0431C34.7737 37.668 34.9844 37.1593 34.9844 36.6289V36.4489C39.5444 35.6114 42.9844 31.9739 42.9844 27.6289C42.9844 22.6664 38.4994 18.6289 32.9844 18.6289ZM58.9844 32.6289C58.9844 37.7712 57.4595 42.7981 54.6026 47.0737C51.7457 51.3494 47.685 54.6819 42.9342 56.6498C38.1833 58.6177 32.9555 59.1325 27.912 58.1293C22.8685 57.1261 18.2358 54.6498 14.5996 51.0137C10.9634 47.3775 8.48719 42.7448 7.48397 37.7013C6.48075 32.6577 6.99564 27.43 8.96352 22.6791C10.9314 17.9283 14.2639 13.8676 18.5396 11.0107C22.8152 8.15378 27.8421 6.62891 32.9844 6.62891C39.8778 6.63619 46.4868 9.3778 51.3611 14.2522C56.2355 19.1265 58.9771 25.7355 58.9844 32.6289ZM54.9844 32.6289C54.9844 28.2777 53.6941 24.0242 51.2767 20.4064C48.8593 16.7885 45.4234 13.9687 41.4034 12.3036C37.3834 10.6384 32.96 10.2028 28.6924 11.0516C24.4248 11.9005 20.5048 13.9958 17.428 17.0726C14.3513 20.1493 12.256 24.0693 11.4071 28.3369C10.5582 32.6045 10.9939 37.028 12.659 41.0479C14.3242 45.0679 17.144 48.5038 20.7618 50.9212C24.3797 53.3386 28.6332 54.6289 32.9844 54.6289C38.8171 54.6223 44.4091 52.3023 48.5334 48.1779C52.6578 44.0536 54.9778 38.4616 54.9844 32.6289Z" fill="black"/>
</svg>
