<svg width="184" height="50" viewBox="0 0 184 50" fill="none" xmlns="http://www.w3.org/2000/svg">
<rect width="88.3544" height="48.7089" transform="translate(0.5 0.645569)" fill="#690D49"/>
<path d="M24.8961 20.3615L23.3819 21.5233C22.5464 20.4355 21.5413 19.6131 20.3664 19.0562C19.2003 18.4905 17.9167 18.2077 16.5156 18.2077C14.9839 18.2077 13.5654 18.5775 12.26 19.3172C10.9547 20.0483 9.94081 21.036 9.2185 22.2805C8.5049 23.5162 8.14809 24.9086 8.14809 26.4577C8.14809 28.7987 8.94873 30.7524 10.55 32.3188C12.16 33.8853 14.1877 34.6685 16.6331 34.6685C19.3221 34.6685 21.5718 33.6155 23.3819 31.5095L24.8961 32.6582C23.9388 33.8766 22.7422 34.8208 21.3063 35.4909C19.8791 36.1523 18.2822 36.483 16.5156 36.483C13.1564 36.483 10.5065 35.3647 8.56581 33.1282C6.93844 31.2397 6.12475 28.9597 6.12475 26.288C6.12475 23.4771 7.10814 21.1143 9.07491 19.1998C11.0504 17.2765 13.5219 16.3149 16.4895 16.3149C18.2822 16.3149 19.9009 16.6717 21.3455 17.3853C22.7901 18.0902 23.9737 19.0823 24.8961 20.3615ZM26.9325 21.7975H28.8645L33.7466 32.7365L38.4851 21.7975H40.4301L31.9582 41.1954H30.0263L32.7676 34.9296L26.9325 21.7975ZM42.9104 36V16.3149H44.7248V24.2385C45.4907 23.2987 46.3479 22.5981 47.2964 22.1369C48.245 21.6669 49.285 21.432 50.4163 21.432C52.4266 21.432 54.141 22.163 55.5595 23.625C56.9867 25.0783 57.7003 26.8449 57.7003 28.9248C57.7003 30.9786 56.9824 32.7322 55.5464 34.1855C54.1105 35.6388 52.3831 36.3655 50.3641 36.3655C49.2066 36.3655 48.158 36.1175 47.2181 35.6214C46.2782 35.1254 45.4472 34.3813 44.7248 33.3892V36H42.9104ZM50.2205 34.6032C51.2387 34.6032 52.1786 34.3552 53.0401 33.8592C53.9017 33.3544 54.5848 32.6495 55.0896 31.7445C55.603 30.8394 55.8597 29.8821 55.8597 28.8726C55.8597 27.8631 55.603 26.9015 55.0896 25.9877C54.5761 25.074 53.8843 24.3647 53.014 23.86C52.1525 23.3465 51.23 23.0898 50.2466 23.0898C49.2458 23.0898 48.2929 23.3465 47.3878 23.86C46.4915 24.3647 45.7996 25.0479 45.3123 25.9094C44.8336 26.771 44.5943 27.7413 44.5943 28.8204C44.5943 30.4652 45.1339 31.8402 46.213 32.9454C47.3008 34.0506 48.6366 34.6032 50.2205 34.6032ZM72.9994 31.2876L74.5397 32.0969C74.035 33.089 73.4519 33.8896 72.7905 34.4988C72.1291 35.108 71.3851 35.5736 70.5583 35.8956C69.7316 36.2089 68.7961 36.3655 67.7517 36.3655C65.4369 36.3655 63.6267 35.6084 62.3214 34.0941C61.016 32.5712 60.3633 30.8525 60.3633 28.9379C60.3633 27.1365 60.9159 25.5309 62.0211 24.121C63.4222 22.3283 65.2976 21.432 67.6473 21.432C70.0666 21.432 71.9986 22.3501 73.4432 24.1863C74.4701 25.483 74.9923 27.1017 75.0097 29.0423H62.243C62.2779 30.6958 62.8044 32.0534 63.8226 33.1151C64.8408 34.1681 66.0983 34.6946 67.5951 34.6946C68.3174 34.6946 69.018 34.5684 69.6968 34.3161C70.3843 34.0637 70.9673 33.7286 71.446 33.3109C71.9246 32.8932 72.4424 32.2187 72.9994 31.2876ZM72.9994 27.4628C72.7557 26.4881 72.3989 25.7093 71.929 25.1262C71.4677 24.5431 70.8542 24.0732 70.0884 23.7164C69.3226 23.3596 68.5176 23.1812 67.6734 23.1812C66.281 23.1812 65.0844 23.6293 64.0836 24.5257C63.3526 25.1784 62.8 26.1574 62.4258 27.4628H72.9994ZM77.7379 21.7975H79.6046V23.873C80.1616 23.055 80.749 22.4458 81.3669 22.0455C81.9847 21.6365 82.6287 21.432 83.2988 21.432C83.8036 21.432 84.3431 21.593 84.9175 21.9149L83.9646 23.4553C83.5817 23.2899 83.2597 23.2073 82.9986 23.2073C82.3894 23.2073 81.802 23.4596 81.2363 23.9644C80.6707 24.4604 80.2399 25.235 79.944 26.288C79.7177 27.0973 79.6046 28.7334 79.6046 31.1962V36H77.7379V21.7975Z" fill="white"/>
<path d="M91.0616 16.7979H95.3954C98.1889 16.7979 100.264 17.146 101.622 17.8422C102.98 18.5297 104.098 19.6523 104.977 21.21C105.856 22.7678 106.295 24.5866 106.295 26.6665C106.295 28.146 106.047 29.5079 105.551 30.7524C105.064 31.9881 104.385 33.015 103.515 33.8331C102.653 34.6511 101.718 35.2168 100.708 35.5301C99.6988 35.8434 97.9496 36 95.4607 36H91.0616V16.7979ZM94.7036 20.3224V32.4233H96.4006C98.0715 32.4233 99.2811 32.2318 100.03 31.8489C100.787 31.466 101.405 30.822 101.883 29.9169C102.362 29.0119 102.601 27.8979 102.601 26.5752C102.601 24.5388 102.031 22.9593 100.891 21.8366C99.8642 20.8271 98.215 20.3224 95.9437 20.3224H94.7036ZM123.605 29.93H112.157C112.322 30.9395 112.761 31.7445 113.475 32.3449C114.197 32.9367 115.115 33.2326 116.229 33.2326C117.561 33.2326 118.705 32.767 119.662 31.8358L122.665 33.2456C121.916 34.3074 121.02 35.0949 119.976 35.6084C118.931 36.1131 117.691 36.3655 116.255 36.3655C114.028 36.3655 112.213 35.665 110.812 34.2638C109.411 32.854 108.71 31.0918 108.71 28.9771C108.71 26.8101 109.407 25.0131 110.799 23.5858C112.2 22.1499 113.954 21.432 116.06 21.432C118.296 21.432 120.115 22.1499 121.516 23.5858C122.917 25.0131 123.618 26.9015 123.618 29.2512L123.605 29.93ZM120.028 27.1234C119.793 26.3315 119.327 25.6875 118.631 25.1915C117.944 24.6954 117.143 24.4474 116.229 24.4474C115.237 24.4474 114.367 24.7259 113.619 25.2828C113.149 25.6309 112.713 26.2445 112.313 27.1234H120.028ZM126.477 21.7975H130.053V23.4292C130.662 22.7591 131.337 22.2587 132.077 21.928C132.825 21.5973 133.639 21.432 134.518 21.432C135.405 21.432 136.206 21.6495 136.92 22.0846C137.633 22.5198 138.208 23.1551 138.643 23.9905C139.208 23.1551 139.9 22.5198 140.718 22.0846C141.545 21.6495 142.446 21.432 143.42 21.432C144.43 21.432 145.318 21.6669 146.083 22.1369C146.849 22.6068 147.397 23.2203 147.728 23.9774C148.068 24.7346 148.237 25.966 148.237 27.6717V36H144.647V28.7943C144.647 27.1843 144.447 26.0965 144.047 25.5309C143.647 24.9565 143.046 24.6693 142.246 24.6693C141.636 24.6693 141.088 24.8434 140.601 25.1915C140.122 25.5396 139.765 26.0225 139.53 26.6404C139.295 27.2496 139.178 28.233 139.178 29.5906V36H135.588V29.1206C135.588 27.8501 135.492 26.932 135.301 26.3663C135.118 25.7919 134.84 25.3655 134.465 25.087C134.091 24.8085 133.639 24.6693 133.108 24.6693C132.516 24.6693 131.977 24.8477 131.489 25.2045C131.011 25.5526 130.649 26.0443 130.406 26.6796C130.171 27.3149 130.053 28.3157 130.053 29.682V36H126.477V21.7975ZM153.041 15.9494C153.668 15.9494 154.203 16.1756 154.647 16.6282C155.099 17.0807 155.325 17.629 155.325 18.2729C155.325 18.9082 155.104 19.4521 154.66 19.9047C154.216 20.3485 153.685 20.5704 153.067 20.5704C152.432 20.5704 151.888 20.3441 151.435 19.8916C150.992 19.4304 150.77 18.8734 150.77 18.2207C150.77 17.5941 150.992 17.0589 151.435 16.6151C151.879 16.1713 152.414 15.9494 153.041 15.9494ZM151.253 21.7975H154.829V36H151.253V21.7975ZM168.562 21.7975H172.113V36H168.562V34.4988C167.866 35.1602 167.165 35.6388 166.46 35.9347C165.764 36.2219 165.007 36.3655 164.189 36.3655C162.353 36.3655 160.765 35.6562 159.424 34.2377C158.084 32.8105 157.414 31.0396 157.414 28.9248C157.414 26.7318 158.062 24.9347 159.359 23.5336C160.656 22.1325 162.231 21.432 164.085 21.432C164.937 21.432 165.738 21.593 166.486 21.9149C167.235 22.2369 167.927 22.7199 168.562 23.3639V21.7975ZM164.816 24.7215C163.71 24.7215 162.792 25.1131 162.061 25.8964C161.33 26.6709 160.965 27.6673 160.965 28.8857C160.965 30.1127 161.335 31.1222 162.074 31.9142C162.823 32.7061 163.741 33.1021 164.829 33.1021C165.951 33.1021 166.882 32.7148 167.622 31.9403C168.362 31.157 168.732 30.1345 168.732 28.8726C168.732 27.6369 168.362 26.6361 167.622 25.8703C166.882 25.1044 165.947 24.7215 164.816 24.7215Z" fill="#AA1676"/>
</svg>
