<svg width="50" height="50" viewBox="0 0 50 50" fill="none" xmlns="http://www.w3.org/2000/svg">
<rect width="50" height="50" rx="25" fill="white"/>
<path d="M25.2686 17.1997H28.6987V29.1138C28.6987 31.0099 28.5482 32.3405 28.2471 33.1055C27.946 33.8704 27.4495 34.4808 26.7578 34.9365C26.0661 35.3841 25.236 35.6079 24.2676 35.6079C22.29 35.6079 20.6055 34.7412 19.2139 33.0078L21.6797 30.7007C22.2249 31.3192 22.6888 31.7342 23.0713 31.9458C23.4538 32.1574 23.8241 32.2632 24.1821 32.2632C24.5483 32.2632 24.821 32.1086 25 31.7993C25.179 31.4901 25.2686 30.8105 25.2686 29.7607V17.1997Z" fill="#AC1D7E"/>
</svg>
