<svg width="48" height="48" viewBox="0 0 48 48" fill="none" xmlns="http://www.w3.org/2000/svg">
<path d="M16.5 24C16.5 23.6022 16.658 23.2206 16.9393 22.9393C17.2206 22.658 17.6022 22.5 18 22.5H22.5V18C22.5 17.6022 22.658 17.2206 22.9393 16.9393C23.2206 16.658 23.6022 16.5 24 16.5C24.3978 16.5 24.7794 16.658 25.0607 16.9393C25.342 17.2206 25.5 17.6022 25.5 18V22.5H30C30.3978 22.5 30.7794 22.658 31.0607 22.9393C31.342 23.2206 31.5 23.6022 31.5 24C31.5 24.3978 31.342 24.7794 31.0607 25.0607C30.7794 25.342 30.3978 25.5 30 25.5H25.5V30C25.5 30.3978 25.342 30.7794 25.0607 31.0607C24.7794 31.342 24.3978 31.5 24 31.5C23.6022 31.5 23.2206 31.342 22.9393 31.0607C22.658 30.7794 22.5 30.3978 22.5 30V25.5H18C17.6022 25.5 17.2206 25.342 16.9393 25.0607C16.658 24.7794 16.5 24.3978 16.5 24ZM42 10.5V21C42 30.885 37.215 36.8756 33.2006 40.1606C28.8769 43.6969 24.5756 44.8988 24.3881 44.9475C24.1303 45.0176 23.8584 45.0176 23.6006 44.9475C23.4131 44.8988 19.1175 43.6969 14.7881 40.1606C10.785 36.8756 6 30.885 6 21V10.5C6 9.70435 6.31607 8.94129 6.87868 8.37868C7.44129 7.81607 8.20435 7.5 9 7.5H39C39.7957 7.5 40.5587 7.81607 41.1213 8.37868C41.6839 8.94129 42 9.70435 42 10.5ZM39 10.5H9V21C9 27.9937 11.5912 33.6581 16.7006 37.8394C18.8761 39.6186 21.3466 41.0026 24 41.9287C26.6886 40.9862 29.19 39.5772 31.3894 37.7663C36.4388 33.5925 39 27.9506 39 21V10.5Z" fill="#AC1D7E"/>
</svg>
