<svg width="65" height="65" viewBox="0 0 65 65" fill="none" xmlns="http://www.w3.org/2000/svg">
<path d="M33.0703 6.42578C26.4421 6.43306 20.0875 9.06932 15.4007 13.7562C10.7139 18.443 8.07759 24.7976 8.07031 31.4258V52.4258C8.07031 53.4866 8.49174 54.5041 9.24189 55.2542C9.99203 56.0044 11.0094 56.4258 12.0703 56.4258H33.0703C39.7007 56.4258 46.0596 53.7919 50.748 49.1035C55.4364 44.415 58.0703 38.0562 58.0703 31.4258C58.0703 24.7954 55.4364 18.4365 50.748 13.7481C46.0596 9.0597 39.7007 6.42578 33.0703 6.42578ZM33.0703 52.4258H12.0703V31.4258C12.0703 27.2724 13.3019 23.2122 15.6095 19.7588C17.917 16.3054 21.1967 13.6138 25.034 12.0243C28.8712 10.4349 33.0936 10.019 37.1672 10.8293C41.2408 11.6396 44.9827 13.6396 47.9196 16.5765C50.8565 19.5134 52.8565 23.2553 53.6668 27.3289C54.4771 31.4025 54.0612 35.6249 52.4718 39.4621C50.8823 43.2994 48.1907 46.5791 44.7373 48.8866C41.2839 51.1942 37.2237 52.4258 33.0703 52.4258ZM36.0703 32.4258C36.0703 33.0191 35.8944 33.5991 35.5647 34.0925C35.2351 34.5858 34.7665 34.9704 34.2184 35.1974C33.6702 35.4245 33.067 35.4839 32.485 35.3681C31.9031 35.2524 31.3685 34.9667 30.949 34.5471C30.5294 34.1275 30.2437 33.593 30.128 33.0111C30.0122 32.4291 30.0716 31.8259 30.2987 31.2777C30.5257 30.7296 30.9103 30.261 31.4036 29.9314C31.8969 29.6017 32.477 29.4258 33.0703 29.4258C33.866 29.4258 34.629 29.7419 35.1916 30.3045C35.7542 30.8671 36.0703 31.6301 36.0703 32.4258ZM25.0703 32.4258C25.0703 33.0191 24.8944 33.5991 24.5647 34.0925C24.2351 34.5858 23.7665 34.9704 23.2184 35.1974C22.6702 35.4245 22.067 35.4839 21.485 35.3681C20.9031 35.2524 20.3685 34.9667 19.949 34.5471C19.5294 34.1275 19.2437 33.593 19.128 33.0111C19.0122 32.4291 19.0716 31.8259 19.2987 31.2777C19.5257 30.7296 19.9103 30.261 20.4036 29.9314C20.8969 29.6017 21.477 29.4258 22.0703 29.4258C22.866 29.4258 23.629 29.7419 24.1916 30.3045C24.7542 30.8671 25.0703 31.6301 25.0703 32.4258ZM47.0703 32.4258C47.0703 33.0191 46.8944 33.5991 46.5647 34.0925C46.2351 34.5858 45.7665 34.9704 45.2184 35.1974C44.6702 35.4245 44.067 35.4839 43.485 35.3681C42.9031 35.2524 42.3685 34.9667 41.949 34.5471C41.5294 34.1275 41.2437 33.593 41.128 33.0111C41.0122 32.4291 41.0716 31.8259 41.2987 31.2777C41.5257 30.7296 41.9103 30.261 42.4036 29.9314C42.8969 29.6017 43.477 29.4258 44.0703 29.4258C44.866 29.4258 45.629 29.7419 46.1916 30.3045C46.7542 30.8671 47.0703 31.6301 47.0703 32.4258Z" fill="black"/>
</svg>
