<svg width="18" height="18" viewBox="0 0 18 18" fill="none" xmlns="http://www.w3.org/2000/svg">
<rect width="18" height="18" fill="#AC1D7E"/>
<g clip-path="url(#clip0_2513_781)">
<path d="M15.7569 6.82694L8.23345 14.3504C8.05766 14.5261 7.81929 14.6247 7.57076 14.6247C7.32222 14.6247 7.08386 14.5261 6.90806 14.3504L2.71158 10.1316C2.53607 9.95585 2.4375 9.71761 2.4375 9.46922C2.4375 9.22083 2.53607 8.98259 2.71158 8.80682L3.88345 7.63494C4.05915 7.45998 4.29702 7.36174 4.54498 7.36174C4.79294 7.36174 5.0308 7.45998 5.2065 7.63494L7.59419 9.95057L13.2637 4.35076C13.4395 4.17562 13.6774 4.07727 13.9255 4.07727C14.1736 4.07727 14.4116 4.17562 14.5874 4.35076L15.7563 5.49569C15.8442 5.5828 15.914 5.68646 15.9616 5.80068C16.0093 5.9149 16.0339 6.03743 16.0339 6.16119C16.034 6.28495 16.0095 6.4075 15.962 6.52176C15.9144 6.63602 15.8447 6.73974 15.7569 6.82694Z" fill="white"/>
</g>
<defs>
<clipPath id="clip0_2513_781">
<rect width="15" height="15" fill="white" transform="translate(1.5 1.5)"/>
</clipPath>
</defs>
</svg>
